<svg width="75" height="63" viewBox="0 0 75 63" fill="none" xmlns="http://www.w3.org/2000/svg">
    <defs>
        <radialGradient id="paint0_radial_31_492" cx="0" cy="0" r="1" gradientUnits="userSpaceOnUse"
            gradientTransform="translate(37.3681 54.3598) scale(43.3775 9.23943)">
            <stop offset="0.2402" stop-color="#283D77" />
            <stop offset="0.9218" stop-color="#283D77" stop-opacity="0" />
        </radialGradient>
        <clipPath id="clip0_31_492">
            <rect width="75" height="63" fill="white" />
        </clipPath>
    </defs>
    <g clip-path="url(#clip0_31_492)">
        <path
            d="M37.4 63.4C61.3692 63.4 80.8 59.281 80.8 54.2C80.8 49.119 61.3692 45 37.4 45C13.4308 45 -6 49.119 -6 54.2C-6 59.281 13.4308 63.4 37.4 63.4Z"
            fill="url(#paint0_radial_31_492)" />
        <path
            d="M37.3 54.6C52.3774 54.6 64.6 42.3774 64.6 27.3C64.6 12.2226 52.3774 0 37.3 0C22.2226 0 10 12.2226 10 27.3C10 42.3774 22.2226 54.6 37.3 54.6Z"
            fill="#D2DEFF" />
        <path
            d="M36.7996 52.5001C51.2695 52.5001 62.9996 40.77 62.9996 26.3001C62.9996 11.8302 51.2695 0.100098 36.7996 0.100098C22.3297 0.100098 10.5996 11.8302 10.5996 26.3001C10.5996 40.77 22.3297 52.5001 36.7996 52.5001Z"
            fill="#91A7E8" />
        <path
            d="M33.0998 42.2999C44.3112 42.2999 53.3998 33.2113 53.3998 22C53.3998 10.7886 44.3112 1.69995 33.0998 1.69995C21.8884 1.69995 12.7998 10.7886 12.7998 22C12.7998 33.2113 21.8884 42.2999 33.0998 42.2999Z"
            fill="#D2DEFF" />
        <path
            d="M30.4996 29.6C37.0718 29.6 42.3996 24.2722 42.3996 17.7C42.3996 11.1279 37.0718 5.80005 30.4996 5.80005C23.9274 5.80005 18.5996 11.1279 18.5996 17.7C18.5996 24.2722 23.9274 29.6 30.4996 29.6Z"
            fill="white" />
    </g>

</svg>