<svg width="132" height="182" viewBox="0 0 132 182" fill="none" xmlns="http://www.w3.org/2000/svg">
<path d="M66.0004 182C34.1415 182 1.82617 175.357 1.82617 162.435C1.82617 149.604 34.1415 142.87 66.0004 142.87C97.8594 142.87 130.175 149.604 130.175 162.435C130.175 175.357 97.9506 182 66.0004 182ZM66.0004 148.421C49.8428 148.421 34.6892 150.15 23.2785 153.244C12.2328 156.247 7.30335 160.069 7.30335 162.435C7.30335 164.892 12.2328 168.623 23.2785 171.626C34.6892 174.72 49.8428 176.449 66.0004 176.449C82.1581 176.449 97.3116 174.72 108.722 171.626C119.768 168.623 124.698 164.801 124.698 162.435C124.698 159.978 119.768 156.247 108.722 153.244C97.3116 150.15 82.1581 148.421 66.0004 148.421Z" fill="#283D77"/>
<path d="M66 180.544C48.9295 180.544 32.7718 178.724 20.6307 175.539C6.93776 171.899 0 166.985 0 160.979C0 154.882 6.93776 149.968 20.6307 146.419C32.7718 143.143 48.9295 141.414 66 141.414C83.0705 141.414 99.2282 143.234 111.369 146.419C125.062 150.059 132 154.973 132 160.979C132 167.076 125.062 171.99 111.369 175.539C99.2282 178.815 83.1618 180.544 66 180.544ZM66 146.965C49.3859 146.965 33.7759 148.694 22.0913 151.788C9.12863 155.246 5.65975 159.159 5.65975 160.979C5.65975 162.799 9.12863 166.712 22.0913 170.17C33.7759 173.264 49.3859 174.993 66 174.993C82.6141 174.993 98.2241 173.264 109.909 170.17C122.871 166.712 126.34 162.799 126.34 160.979C126.34 159.159 122.871 155.246 109.909 151.788C98.2241 148.694 82.6141 146.965 66 146.965Z" fill="#364A91"/>
<path d="M66 178.451C48.9295 178.451 32.7718 176.631 20.6307 173.446C6.93776 169.806 0 164.892 0 158.886C0 152.789 6.93776 147.875 20.6307 144.326C32.7718 141.05 48.9295 139.321 66 139.321C83.0705 139.321 99.2282 141.141 111.369 144.326C125.062 147.966 132 152.88 132 158.886C132 164.983 125.062 169.897 111.369 173.446C99.2282 176.722 83.1618 178.451 66 178.451ZM66 144.872C49.3859 144.872 33.7759 146.601 22.0913 149.695C9.12863 153.153 5.65975 157.066 5.65975 158.886C5.65975 160.706 9.12863 164.619 22.0913 168.077C33.7759 171.171 49.3859 172.9 66 172.9C82.6141 172.9 98.2241 171.171 109.909 168.077C122.871 164.619 126.34 160.706 126.34 158.886C126.34 157.066 122.871 153.153 109.909 149.695C98.2241 146.601 82.6141 144.872 66 144.872Z" fill="#586EBC"/>
<path d="M127.8 157.248C127.8 164.073 115.751 170.079 97.6759 173.355C88.3647 174.993 77.5929 175.994 65.9995 175.994C51.8502 175.994 38.7962 174.538 28.2983 172.081C20.9954 170.352 14.9705 168.168 10.7713 165.711C6.57215 163.163 4.10742 160.342 4.10742 157.248L4.28999 155.883C4.28999 155.883 4.28999 155.883 4.28999 155.792L21.6344 16.926H110.365L127.709 155.792L127.8 157.248Z" fill="#283D77"/>
<path d="M97.676 173.355C88.3648 174.993 77.5931 175.994 65.9997 175.994C51.8503 175.994 38.7964 174.538 28.2985 172.081C20.9956 170.352 14.9707 168.168 10.7715 165.711L27.0204 16.926H87.9997L97.676 173.355Z" fill="#364A91"/>
<path d="M66.0001 16.926V175.994C51.8507 175.994 38.7968 174.538 28.2988 172.081L39.7096 16.926H66.0001Z" fill="#586EBC"/>
<path d="M65.9999 30.3031C90.5021 30.3031 110.365 24.314 110.365 16.9261C110.365 9.53816 90.5021 3.54907 65.9999 3.54907C41.4977 3.54907 21.6348 9.53816 21.6348 16.9261C21.6348 24.314 41.4977 30.3031 65.9999 30.3031Z" fill="#586EBC"/>
<path d="M66.0002 34.1251C54.3156 34.1251 43.2699 32.6691 34.8716 30.1211C25.7429 27.3001 20.8135 23.2961 20.8135 18.6551C20.8135 14.0141 25.6517 10.1011 34.8716 7.18906C43.1786 4.55006 54.2243 3.18506 66.0002 3.18506C77.7761 3.18506 88.7305 4.64106 97.1288 7.18906C106.349 10.1011 111.187 14.0141 111.187 18.6551C111.187 23.2961 106.349 27.2091 97.1288 30.1211C88.7305 32.7601 77.6848 34.1251 66.0002 34.1251ZM66.0002 7.28006C40.6226 7.28006 25.0126 13.9231 25.0126 18.6551C25.0126 23.3871 40.6226 30.0301 66.0002 30.0301C91.3778 30.0301 106.988 23.3871 106.988 18.6551C106.988 13.9231 91.3778 7.28006 66.0002 7.28006Z" fill="#283D77"/>
<path d="M65.9999 32.7598C53.9501 32.7598 42.6306 31.3038 34.0497 28.7558C24.5559 25.9348 19.5352 21.9308 19.5352 17.2898C19.5352 12.6488 24.5559 8.64482 34.0497 5.82382C42.6306 3.27582 53.9501 1.81982 65.9999 1.81982C78.0497 1.81982 89.3692 3.27582 97.9501 5.82382C107.444 8.73583 112.465 12.6488 112.465 17.2898C112.465 21.9308 107.444 25.9348 97.9501 28.7558C89.3692 31.3948 78.0497 32.7598 65.9999 32.7598ZM65.9999 5.91482C39.8007 5.91482 23.8256 12.4668 23.8256 17.1988C23.8256 21.9308 39.892 28.4828 65.9999 28.4828C92.1078 28.4828 108.174 21.9308 108.174 17.1988C108.174 12.4668 92.1991 5.91482 65.9999 5.91482Z" fill="#364A91"/>
<path d="M65.9999 31.031C53.9501 31.031 42.6306 29.575 34.0497 27.027C24.5559 24.115 19.5352 20.202 19.5352 15.561C19.5352 10.92 24.5559 6.916 34.0497 4.095C42.6306 1.456 53.9501 0 65.9999 0C78.0497 0 89.3692 1.456 97.9501 4.004C107.444 6.916 112.465 10.829 112.465 15.47C112.465 20.111 107.444 24.115 97.9501 26.936C89.3692 29.575 78.0497 31.031 65.9999 31.031ZM65.9999 4.186C39.8007 4.186 23.8256 10.738 23.8256 15.47C23.8256 20.202 39.892 26.754 65.9999 26.754C92.1078 26.754 108.174 20.202 108.174 15.47C108.174 10.738 92.1991 4.186 65.9999 4.186Z" fill="#586EBC"/>
</svg>
