<svg width="156" height="56" viewBox="0 0 156 56" fill="none" xmlns="http://www.w3.org/2000/svg">
<path d="M14.3274 6.32088C18.4353 5.43199 23.3447 7.70359 24.4468 13.432C25.2484 17.0863 24.9478 21.1357 24.0461 25.2838C23.1443 29.3332 21.7416 33.3826 20.1385 37.2345C16.9324 44.6419 12.9247 50.7653 9.71851 52.3456C9.11735 52.6419 8.21562 52.7406 7.21369 51.0616C6.01138 49.0863 5.20984 46.1233 5.41022 43.0616C5.61061 39.9999 6.61253 36.8394 7.81485 34.469C7.81485 34.2715 7.91504 34.2715 7.91504 34.1727C6.11157 36.6419 4.90926 40.0987 4.70887 43.3579C4.60868 44.148 4.70887 44.9382 4.80907 45.7283C4.90926 46.5184 5.00945 47.2098 5.31003 47.9011C5.61061 48.5925 5.81099 49.2838 6.21176 49.7777C6.71273 50.2715 7.1135 50.7653 7.51427 51.2592C7.81485 51.6542 8.01523 52.0493 8.21562 52.4443C8.31581 52.6419 8.31581 52.8394 8.416 53.0369V53.1357C7.71465 52.0493 9.91889 55.5061 6.91311 50.7653L7.0133 51.1604L7.41408 51.8517C7.71465 52.3456 8.01523 52.8394 8.31581 53.2345C8.81677 53.9258 8.61639 53.7283 8.71658 53.8271L8.81677 54.0246L9.11735 54.3209C9.21754 54.5184 9.41793 54.6172 9.61831 54.7159C10.2195 55.111 10.9208 55.0122 11.3216 54.8147C14.9285 53.1357 19.1366 47.0122 22.443 39.7036C24.0461 35.9505 25.4488 31.9999 26.2503 27.8517C27.0518 23.8024 27.3524 19.6542 26.6511 15.9011C25.8495 11.753 24.1463 8.59248 21.5412 6.71594C20.2387 5.82705 18.836 5.23446 17.233 4.93816C15.6299 4.64186 13.8264 4.74063 12.0229 5.33322C10.0191 5.92582 8.21562 6.91347 6.51234 8.19742C5.7108 8.79001 4.90926 9.48137 4.20791 10.2715C3.50656 11.0616 2.80521 11.8517 2.30425 12.7406C1.20213 14.4196 0.400587 16.2962 0.100009 18.074C-0.200569 19.8517 -0.000183705 21.6295 0.600972 23.2098C1.50271 25.1851 3.20598 26.5678 4.20791 26.1727C3.50656 25.8764 2.80521 25.0863 2.40444 23.9999C1.50271 21.9258 2.30425 17.9752 4.40829 14.3209C6.71273 10.6666 10.3197 7.30853 14.3274 6.32088ZM15.6299 17.3826C16.1308 15.3085 16.4314 14.3209 16.732 13.6295C17.1328 12.5431 17.6337 11.9505 18.1347 12.2468C18.6357 12.6419 17.5335 10.8641 16.231 10.3703C16.0306 10.2715 15.7301 10.2715 15.5297 10.2715C14.4276 10.5678 13.5258 14.3209 13.2253 15.5061C12.3235 19.3579 11.7224 24.79 11.6222 29.5308C11.522 34.2715 11.9227 38.4196 12.4237 39.9999C12.7243 40.8888 13.2253 41.1851 13.4256 41.0863C13.8264 40.9875 14.3274 39.3085 14.2272 38.7159C13.8264 39.4073 13.5258 39.7036 13.2253 39.8024C12.9247 38.9135 12.8245 35.1604 13.2253 30.8147C13.8264 26.3703 14.6279 21.2345 15.6299 17.3826Z" fill="#35756B"/>
<path d="M29.557 33.1851C30.8595 32.8888 32.2622 30.9135 33.3643 28.6419C34.4664 26.469 35.268 23.9011 35.0676 22.5184C34.8672 21.2345 33.5647 20.4443 33.1639 20.4443C32.0618 20.5431 30.1581 22.4196 28.7554 25.8764C27.7535 28.5431 27.1523 31.5061 27.1523 34.1727C27.1523 35.1604 27.2525 36.148 27.4529 37.1357C27.7535 38.3209 28.9558 39.7036 29.6572 39.6048C31.1601 39.3085 32.5627 36.8394 33.7651 33.9752C35.0676 31.111 36.1697 27.9505 36.871 26.2715C36.9712 26.1727 36.6706 25.9752 36.6706 26.074C35.7689 28.148 34.4664 30.9135 33.3643 33.1851C32.162 35.5554 31.0599 37.432 30.2583 37.5308C29.7574 37.6295 29.4568 37.3332 29.3566 36.8394C29.1562 35.6542 29.3566 34.1727 29.557 33.1851ZM34.0656 21.7283C34.1658 22.6172 33.4645 24.9875 32.5627 27.2591C31.661 29.6295 30.5589 31.8024 29.6572 32.1974C29.9577 29.7283 31.661 23.7036 34.0656 21.7283Z" fill="#35756B"/>
<path d="M37.4717 35.5557C37.1711 33.9755 37.7723 30.5187 38.8744 27.3582C39.8763 24.1977 41.3792 21.4322 42.7819 21.136C42.9823 21.4322 42.4814 25.0866 42.1808 25.8767C42.1808 25.9755 42.281 26.0742 42.281 25.9755C42.8821 24.7903 43.8841 22.9137 43.6837 21.2347C43.5835 20.5434 42.5816 19.1606 41.9804 19.1606C40.1769 19.3582 38.0729 22.0248 36.6702 25.9755C35.5681 29.136 35.2675 32.3952 35.3677 34.2718C35.3677 34.8643 35.4679 35.2594 35.5681 35.6545C35.9688 37.0372 36.9708 38.3211 37.6721 38.1236C39.0748 37.9261 40.4775 35.5557 41.8802 32.889C43.2829 30.2224 44.5854 27.0619 45.3869 25.0866C45.4871 24.9878 45.2868 24.7903 45.1866 24.889C44.1846 26.7656 42.9823 29.4323 41.6798 31.6051C40.3773 33.7779 39.175 35.7532 38.1731 36.0495C38.0729 36.2471 37.5719 36.2471 37.4717 35.5557Z" fill="#35756B"/>
<path d="M44.7856 37.2349C46.0881 36.8398 48.8935 29.0374 50.697 24.5929C50.7971 24.4941 50.5968 24.0991 50.4966 24.2966C49.2943 27.062 46.4889 33.7781 45.2865 34.667C45.2865 32.7904 47.2904 22.1238 48.3925 22.2225C48.5929 22.2225 48.6931 22.4201 48.6931 22.3213C48.5929 21.2349 47.3906 19.4571 46.7894 19.5559C46.6892 19.5559 46.5891 19.6546 46.4889 19.8522C45.0862 22.3213 42.9821 32.5929 43.3829 35.1608C43.4831 35.9509 44.1844 37.0374 44.5852 37.2349C44.5852 37.2349 44.6854 37.2349 44.7856 37.2349ZM48.2923 12.4448C47.6912 12.8398 47.09 15.8028 47.1902 17.1855C47.2904 17.9756 47.8916 18.8645 48.1921 18.0744C48.3925 17.2843 49.3944 15.309 49.7952 15.0127C50.0958 14.7164 50.2962 14.9139 50.2962 14.9139C50.3964 14.9139 50.196 14.2225 49.8954 13.8275C49.4946 13.0374 48.8935 12.2472 48.2923 12.4448Z" fill="#35756B"/>
<path d="M60.1157 35.852C61.4182 35.7532 64.925 27.9508 66.9288 23.6051C67.029 23.5063 66.8286 23.1113 66.7284 23.3088C65.2255 26.173 62.1196 32.6915 60.7169 33.4816C60.5165 31.5063 63.7226 21.4322 64.3238 20.5433C64.6244 20.0495 63.7227 17.5804 63.1215 17.6792C62.0194 17.7779 57.9115 26.3705 56.108 31.9014C56.0078 30.3211 57.6109 23.6051 58.713 21.1359C58.9134 20.6421 58.0117 18.4693 57.5107 18.4693C57.5107 18.4693 57.4105 18.4693 57.4105 18.568C56.3084 18.9631 51.7997 28.3458 50.7978 32.2964C51.0984 30.5187 52.7015 24.3952 53.6032 22.1236C53.9038 21.3335 54.2043 20.9384 54.3045 20.9384C54.5049 20.9384 54.6051 21.1359 54.6051 21.0372C54.5049 19.9508 53.4028 18.2717 52.8017 18.2717C52.7015 18.2717 52.6013 18.3705 52.5011 18.568C52.3007 18.9631 52.0001 19.6545 51.6995 20.4446C50.5974 23.5063 49.5955 27.7532 48.9943 31.5063C48.5936 33.6791 48.6937 34.8643 48.6937 35.1606C48.9943 36.4446 49.7959 37.7285 50.397 37.3335C49.9963 37.0372 49.9963 36.1483 50.4972 34.568C50.5974 34.173 50.7978 33.5804 51.0984 32.6915C52.4009 28.8396 54.3045 24.3952 56.609 21.4322C55.2063 24.2964 53.9038 31.0125 54.004 32.6915C54.1042 33.5804 54.9057 34.9631 55.3065 34.9631C55.607 34.9631 56.2082 32.889 57.3103 30.1236C58.3122 27.3582 59.8151 23.9014 61.9192 20.9384C60.7169 23.21 58.6128 30.9137 58.8132 33.4816C58.8132 34.173 59.6148 35.852 60.1157 35.852Z" fill="#35756B"/>
<path d="M69.6335 31.3089C69.5333 32.0002 69.4331 32.494 69.5333 32.9879C69.5333 33.778 70.0343 34.7657 70.3349 35.0619C70.5353 35.2595 70.6355 35.3582 70.7356 35.3582C72.1383 35.3582 75.8455 27.6545 77.9495 23.3089C78.0497 23.2101 77.8493 22.815 77.7491 23.0126C76.2462 25.5805 72.9399 32.0002 71.5372 32.7903C71.5372 32.3953 71.6374 31.9015 71.7376 31.2101C72.3387 28.2471 74.4428 23.3089 74.543 23.7039C74.6432 23.1113 73.7414 20.6422 73.2405 21.136C72.6393 21.8274 71.1364 24.6916 70.7356 25.3829C69.5333 27.457 66.3272 32.0002 65.6258 32.5928C65.5256 32.6916 65.5256 32.6916 65.4254 32.5928C65.225 32.3953 66.7279 26.5681 68.9322 22.815C70.4351 20.2471 72.1383 18.3706 73.6412 18.1731C74.3426 18.0743 74.8435 18.7657 74.8435 20.0496C74.8435 20.741 74.7434 21.2348 74.6432 21.7286C74.6432 21.7286 74.6432 21.8274 74.7434 21.7286C74.9437 21.136 75.1441 20.3459 75.1441 19.5558C75.1441 17.3829 73.8416 16.6916 72.9399 16.7903C70.6355 16.8891 68.1306 19.457 66.3272 22.6175C64.5237 25.8768 63.3214 29.7286 63.5218 32.1978C63.5218 33.0866 64.2231 34.7657 64.7241 35.1607L64.9245 35.2595C65.8262 35.1607 70.2347 27.457 70.936 26.0743C70.4351 27.5558 69.9341 29.6299 69.6335 31.3089Z" fill="#35756B"/>
<path d="M78.9515 18.0741C75.9457 26.6667 75.0439 31.2099 75.0439 32.4939C75.0439 32.9877 75.1441 33.0865 75.1441 33.1853C75.3445 33.8766 75.8455 34.7655 76.0459 34.963C76.2463 35.1606 76.4466 35.3581 76.7472 35.1606C78.1499 34.1729 82.2578 25.9754 83.4601 23.4075C83.5603 23.3087 83.4601 22.9136 83.2597 23.1112C81.7569 25.5803 77.8493 32.889 76.8474 32.6914C77.3484 29.8272 79.1518 24.0001 81.3561 18.0741C82.6586 14.8149 83.6605 12.1482 84.7626 9.58032C85.8648 7.11118 87.6682 2.86427 88.57 3.65439C89.0709 4.14822 88.069 1.48155 86.6663 1.58032C86.4659 1.58032 86.0651 1.97538 85.6644 2.46921C84.963 3.35809 84.2617 4.83958 83.4601 6.61735C82.1576 9.67908 80.4544 13.6297 78.9515 18.0741Z" fill="#35756B"/>
<path d="M86.466 25.6791C86.8668 25.6791 90.9747 23.7038 95.0826 23.9013L95.1828 23.8025C95.1828 23.2099 92.0768 22.0247 90.073 21.926C88.5701 21.8272 85.6645 22.0247 85.6645 23.2099C85.5643 24.0988 85.8649 25.6791 86.466 25.6791Z" fill="#35756B"/>
<path d="M125.241 4.93831C125.842 1.67905 123.738 0.197566 122.436 0.0988002C117.727 -0.691323 110.413 3.85189 104.802 10.7655C99.0908 17.7778 94.9829 26.963 94.5821 35.5556C94.3817 39.7037 95.584 42.3704 97.8885 42.2716C99.7921 42.1729 102.297 40.0988 105.002 37.5309C107.607 34.963 110.413 31.7037 112.617 29.1358C109.711 33.8766 106.004 43.6544 105.303 50.5679C105.203 51.4568 105.403 52.0494 105.603 52.0494C105.704 52.0494 105.704 51.9506 105.704 51.8519C105.704 51.7531 105.603 51.7531 105.704 51.4568C105.804 50.7655 106.204 48.7902 106.806 46.6173C107.707 43.5556 109.511 39.2099 111.715 34.7655C113.919 30.4198 116.725 26.1729 119.53 23.4074C120.532 22.4198 121.233 22.0247 121.534 22.6173C121.835 23.3087 121.835 20.5432 120.632 19.8519C121.133 19.7531 122.937 20.4445 124.039 21.1358C124.039 20.4445 121.935 18.4692 119.029 18.1729C118.027 18.0741 115.021 17.8766 112.216 18.5679C109.411 19.1605 106.906 20.2469 106.705 22.321C106.505 23.9013 107.206 25.5803 107.307 25.0865C107.507 22.9136 114.32 19.9507 119.43 19.8519C116.825 22.8148 112.917 27.4568 109.11 31.605C107.206 33.679 105.303 35.5556 103.599 36.9383C101.896 38.4198 100.393 39.3087 99.0908 39.4074C96.9868 39.605 96.586 37.6297 96.8866 34.963C97.4877 28.0494 101.596 19.1605 106.906 12.1482C109.511 8.69139 112.517 5.72843 115.222 3.75312C117.927 1.77781 120.532 0.691393 122.436 0.987689C123.638 1.18522 124.74 2.27164 124.339 4.24695C123.638 8.0988 119.129 12.2469 117.326 12.0494C117.125 12.0494 118.127 10.2716 118.328 9.97534C117.426 10.4692 116.324 12.0494 116.124 13.1358C116.023 13.8272 116.524 15.2099 117.025 15.2099C118.428 15.4074 120.231 14.1235 121.835 12.1482C123.337 10.0741 124.84 7.50621 125.241 4.93831Z" fill="#35756B"/>
<path d="M122.135 34.6667C121.934 35.358 121.734 35.8518 121.634 36.2469C121.433 37.037 121.734 38.0247 121.934 38.5185C122.034 38.716 122.135 38.8148 122.235 38.8148C122.936 38.9136 124.539 37.3333 126.343 35.2593C128.146 33.1852 130.35 30.6173 131.853 28.7407C131.953 28.642 131.953 28.2469 131.753 28.4444C129.549 30.716 125.04 35.9506 123.437 36.5432C123.537 36.1481 123.738 35.6543 123.938 35.0617C125.14 32.2963 128.346 27.9506 128.346 28.4444C128.547 27.9506 128.346 25.2839 127.745 25.679C127.044 26.1728 124.84 28.642 124.339 29.3333C122.736 31.1111 118.628 34.963 117.826 35.358C117.726 35.358 117.726 35.358 117.626 35.358C117.425 35.0617 120.131 29.7284 123.036 26.5679C125.04 24.3951 127.244 22.8148 128.647 23.0123C129.449 23.1111 129.749 23.9012 129.449 25.1852C129.248 25.8765 129.048 26.3704 128.847 26.7654C128.847 26.7654 128.847 26.8642 128.948 26.8642C129.348 26.3704 129.749 25.679 129.849 24.8889C130.35 22.8148 129.248 21.8272 128.346 21.6296C126.042 21.1358 123.036 23.2099 120.531 25.9753C118.027 28.7407 116.123 32.2963 115.822 34.7654C115.722 35.6543 116.023 37.4321 116.323 37.9259C116.323 38.0247 116.424 38.1235 116.524 38.1235C117.025 38.2222 118.628 36.5432 120.331 34.7654C122.034 32.9877 123.738 31.0123 124.239 30.4197C123.838 31.1111 122.736 33.0864 122.135 34.6667Z" fill="#35756B"/>
<path d="M136.662 42.3705C137.263 42.568 138.967 41.0865 141.071 39.3087C143.175 37.4322 145.68 35.1606 147.483 33.5803C147.583 33.4816 147.583 33.0865 147.383 33.284C146.08 34.2717 144.076 35.9507 142.273 37.4322C140.369 38.9137 138.766 40.1976 137.965 40.2964C138.265 39.3087 140.069 36.8396 141.972 34.4692C143.876 32.0988 145.88 30.0248 146.381 29.6297C146.882 29.2347 146.982 26.6667 146.381 26.4692C145.88 26.2717 143.676 27.7532 141.371 29.926C138.967 32.0988 136.362 34.8643 134.558 37.2347C134.959 35.6544 138.866 30.0248 140.87 28.0495C141.271 27.6544 141.171 25.284 140.67 25.0865C140.67 25.0865 140.57 25.0865 140.47 25.0865C139.868 25.0865 137.664 26.8643 135.36 29.1359C133.055 31.4075 130.651 33.9754 129.549 35.7532C130.45 34.0742 133.957 28.9384 135.56 27.0618C136.061 26.4692 136.562 26.0742 136.662 26.1729C136.863 26.2717 136.863 26.4692 136.963 26.3705C137.263 25.284 136.863 23.3087 136.161 23.21C136.061 23.21 135.961 23.21 135.76 23.3087C135.36 23.605 134.859 24.1976 134.358 24.7902C132.254 27.2593 129.849 31.0124 128.046 34.3705C126.944 36.247 126.643 37.4322 126.643 37.7285C126.543 39.0124 126.743 40.4939 127.545 40.2964C127.244 39.9013 127.645 39.0124 128.547 37.7285C128.847 37.3334 129.148 36.8396 129.749 36.0495C132.254 32.889 135.46 29.2347 138.766 27.2593C136.362 29.4322 132.855 35.3581 132.454 36.9384C132.254 37.8272 132.554 39.4075 132.855 39.5063C133.456 39.7038 137.764 32.6914 143.976 28.7408C141.972 30.3211 137.163 36.8396 136.462 39.3087C136.061 40.3951 136.161 42.2717 136.662 42.3705Z" fill="#35756B"/>
<path d="M144.879 38.5189C146.081 38.914 148.285 38.0251 150.49 36.9387C152.694 35.7535 154.998 34.3708 155.7 33.1856C156.401 32.0991 155.7 30.5189 155.299 30.3214C154.197 29.7288 151.391 30.0251 148.285 32.0991C145.881 33.7782 143.777 35.951 142.274 38.2226C141.773 39.1115 141.272 39.9016 140.971 40.8893C140.57 42.0745 140.771 43.8522 141.372 44.0498C142.674 44.5436 145.079 43.1609 147.684 41.5806C150.289 40.0004 152.994 38.1238 154.698 37.235C154.798 37.1362 154.798 36.8399 154.698 36.9387C150.389 38.8152 144.378 43.0621 142.975 42.5683C142.574 42.3707 142.474 42.0745 142.674 41.5806C143.175 40.3954 144.077 39.2103 144.879 38.5189ZM155.399 31.8029C154.898 32.4942 152.794 33.9757 150.69 35.3584C148.586 36.7411 146.482 37.9263 145.48 37.8275C147.083 35.7535 151.792 31.8029 155.399 31.8029Z" fill="#35756B"/>
<path d="M27.7532 49.8764C36.0692 46.3209 46.0885 45.1357 55.6068 44.4443C65.8264 43.7529 84.863 44.148 85.7648 46.1233C86.2657 47.2097 87.5683 41.2838 85.9652 41.185C75.4449 40.2962 64.5239 41.0863 54.0037 42.2715C44.4854 43.3579 34.7667 45.0369 27.2523 49.3826C27.0519 49.6789 27.3525 49.9752 27.7532 49.8764Z" fill="#35756B"/>
<path d="M136.362 55.5062C135.66 55.1112 135.059 54.5186 134.358 54.0247C133.656 53.5309 132.955 53.1358 132.254 52.7408C130.851 51.9507 129.348 51.1605 127.745 50.4692C126.242 49.7778 124.739 49.0865 123.136 48.4939C121.233 47.8025 119.429 47.2099 117.525 46.6173C116.023 46.1235 114.019 52.3457 115.021 51.2593C116.123 50.1729 122.635 52.247 125.942 53.1358C127.545 53.5309 129.148 54.1235 130.751 54.5186C131.552 54.7161 132.254 54.9136 133.055 55.1112C134.057 55.4074 134.959 55.5062 135.961 55.9013C136.261 56.0988 136.762 55.7037 136.362 55.5062Z" fill="#35756B"/>
</svg>
